HIERARCHY
ROOT Hips
{
  OFFSET 0 0 0
  CHANNELS 6 Xposition Yposition Zposition Zrotation Yrotation Xrotation
  JOINT LeftThigh
  {
    OFFSET 8.409438 0 -5.917753
    CHANNELS 3 Zrotation Yrotation Xrotation
    JOINT LeftLeg
    {
      OFFSET 0 0 -42.358652
      CHANNELS 3 Zrotation Yrotation Xrotation
      JOINT LeftFoot
      {
        OFFSET 0 0 -39.357303
        CHANNELS 3 Zrotation Yrotation Xrotation
      }
    }
  }
  JOINT RightThigh
  {
    OFFSET -8.409438 0 -5.917753
    CHANNELS 3 Zrotation Yrotation Xrotation
    JOINT RightLeg
    {
      OFFSET 0 0 -42.358652
      CHANNELS 3 Zrotation Yrotation Xrotation
      JOINT RightFoot
      {
        OFFSET 0 0 -39.357303
        CHANNELS 3 Zrotation Yrotation Xrotation
      }
    }
  }
  JOINT SpineLow
  {
    OFFSET 0 0 4.719101
    CHANNELS 3 Zrotation Yrotation Xrotation
    JOINT SpineMid
    {
      OFFSET 0 0 12.899191
      CHANNELS 3 Zrotation Yrotation Xrotation
      JOINT Chest
      {
        OFFSET 0 0 12.899191
        CHANNELS 3 Zrotation Yrotation Xrotation
        JOINT LeftShoulder
        {
          OFFSET 7.550562 1.41573 9.438202
          CHANNELS 3 Zrotation Yrotation Xrotation
          JOINT LeftArm
          {
            OFFSET 9.155056 0 4.247191
            CHANNELS 3 Zrotation Yrotation Xrotation
            JOINT LeftForearm
            {
              OFFSET 0 0 25.771955
              CHANNELS 3 Zrotation Yrotation Xrotation
              JOINT LeftHand
              {
                OFFSET 0 0 25.197169
                CHANNELS 3 Zrotation Yrotation Xrotation
              }
            }
          }
        }
        JOINT RightShoulder
        {
          OFFSET -7.550562 1.41573 9.438202
          CHANNELS 3 Zrotation Yrotation Xrotation
          JOINT RightArm
          {
            OFFSET -9.155056 0 4.247191
            CHANNELS 3 Zrotation Yrotation Xrotation
            JOINT RightForearm
            {
              OFFSET 0 0 -25.771955
              CHANNELS 3 Zrotation Yrotation Xrotation
              JOINT RightHand
              {
                OFFSET 0 0 -25.197169
                CHANNELS 3 Zrotation Yrotation Xrotation
              }
            }
          }
        }
        JOINT Neck
        {
          OFFSET 0 0 15.101124
          CHANNELS 3 Zrotation Yrotation Xrotation
          JOINT Head
          {
            OFFSET 0 0 11.325843
            CHANNELS 3 Zrotation Yrotation Xrotation
            End Site
            {
              OFFSET 0 0 14.157303
            }
          }
        }
      }
    }
  }
}
MOTION
Frames: 10
Frame Time: 0.0
0.0  93.25843  0.0  60.833833  -45.044988  -144.768396  33.197512  -42.165555  -44.724153  -17.50084  7.310488  32.316289  6.633581  -2.046254  -6.953554  21.04182  26.812864  -1.523015  8.741281  14.888848  22.44243  6.243158  3.172473  2.288032  -0.069373  1.632591  2.14714  -0.044466  4.464635  5.872536  -0.044466  4.464635  5.872537  -0.809436  34.437396  15.690269  -178.985009  54.637336  -145.231335  -29.360936  -12.88091  94.110082  74.145689  -32.368143  0.872428  17.019853  -4.897999  24.623619  147.515547  53.717479  78.926308  -17.728485  -21.371767  -110.757864  73.932402  -0.880642  -10.720443  12.986676  19.746404  22.739723  8.893695  15.318147  16.455563  
0.0  93.25843  0.0  60.822302  -45.385108  -145.081339  34.801143  -42.416868  -45.836566  -17.700607  9.663444  37.350014  6.857846  -1.797249  -6.958308  21.908116  26.244978  -0.956333  8.969236  14.69994  22.758786  5.822041  3.30667  2.304537  -0.088073  1.609533  2.167206  -0.096316  4.403323  5.92605  -0.096316  4.403323  5.92605  -0.904116  34.456504  15.495615  -178.963024  55.038133  -145.376349  -29.461326  -12.975869  94.046293  74.171974  -32.443688  0.976765  16.957072  -5.018986  24.653999  147.624853  53.422248  79.097812  -17.552413  -22.336328  -110.715274  73.56126  -0.570243  -10.445216  13.188477  19.824869  22.740379  9.039661  15.384725  16.446266  
0.0  93.25843  0.0  60.662796  -45.423769  -145.38435  34.451509  -43.791127  -46.120109  -15.26289  11.838607  43.296772  7.124551  -1.464068  -6.982372  21.821724  25.886202  -0.651985  9.30573  14.787936  23.015098  5.793992  3.21658  2.341932  -0.195368  1.621683  2.222308  -0.384918  4.446337  6.069737  -0.384918  4.446337  6.069737  -0.896806  34.534487  15.308279  -178.073666  55.297155  -144.825498  -29.542381  -12.610948  93.947274  73.990881  -32.525225  1.370092  17.206447  -5.07376  24.539046  147.737627  53.095867  79.14762  -17.693093  -23.041177  -110.46946  73.171763  -0.29969  -10.254004  13.528392  19.908073  22.619011  9.292014  15.457182  16.341606  
0.0  93.25843  0.0  60.265604  -45.244581  -145.534244  32.929821  -45.93217  -46.224051  -10.881732  13.590696  50.190531  7.107929  -1.066431  -7.038889  20.980895  25.769456  -0.60104  9.637394  14.89629  23.26871  6.077917  3.044701  2.276465  -0.334931  1.65649  2.311856  -0.757184  4.555041  6.30532  -0.757184  4.555041  6.30532  -0.789746  34.534041  15.087867  -177.236776  55.537283  -143.888871  -29.684018  -12.139739  93.637277  73.692972  -32.507833  1.868708  17.464674  -5.051704  24.248236  147.617183  53.010962  78.955097  -17.825145  -23.543975  -110.137916  72.733523  -0.034937  -10.101688  13.75507  19.919373  22.367292  9.468159  15.468103  16.14683  
0.0  93.25843  0.0  59.763624  -45.01256  -145.611739  31.588325  -48.29826  -46.586019  -6.042282  14.916323  57.478419  6.774643  -0.585882  -7.092669  19.860085  25.703082  -0.642622  10.228887  14.851224  23.573993  6.454805  2.964696  2.246173  -0.452006  1.690852  2.415731  -1.066711  4.661484  6.581305  -1.066711  4.661484  6.581305  -0.990424  34.38084  14.625119  -176.603523  55.536897  -143.354679  -29.828901  -11.682353  93.421972  73.373558  -32.470505  2.211075  17.625319  -4.952059  23.878934  147.061386  53.190752  78.428425  -17.723442  -24.025812  -109.834551  72.187927  0.271106  -9.983793  13.800565  19.881101  22.099028  9.512693  15.434528  15.947755  
0.0  93.25843  0.0  59.16856  -44.856959  -145.549776  31.440098  -50.018841  -47.555116  -2.15091  15.668186  64.635479  6.059224  -0.107901  -7.176206  17.68987  25.305813  -1.501503  12.063987  14.758626  24.259378  6.419829  2.840317  2.200239  -0.539159  1.70318  2.500156  -1.297753  4.70528  6.806107  -1.297753  4.70528  6.806107  -0.977998  34.244836  14.218806  -176.700521  55.506351  -143.190448  -29.929802  -11.485521  93.375445  73.174057  -32.187899  2.294803  17.722819  -4.800577  23.532309  146.062081  53.510766  77.525256  -17.311465  -24.651527  -109.615869  71.505133  0.646053  -9.887435  13.720715  19.81613  21.913542  9.462673  15.378304  15.815334  
0.0  93.25843  0.0  58.432296  -44.813527  -145.249617  32.099155  -50.976241  -48.89062  0.446133  16.045717  71.330647  5.119791  0.409492  -7.233815  17.415818  24.851587  -1.13909  12.409635  14.607096  24.446795  6.326034  2.856378  2.21899  -0.59954  1.689155  2.55088  -1.460651  4.674203  6.940811  -1.460651  4.674202  6.940811  -1.04083  34.078617  13.670106  -177.253369  55.385762  -143.486945  -30.079348  -11.565881  93.139441  72.906931  -32.086355  2.444764  17.741815  -4.632134  23.249376  144.778135  53.890489  76.331173  -16.613723  -25.508681  -109.512534  70.856674  1.055803  -9.76856  13.563991  19.741101  21.835685  9.352472  15.314369  15.765713  
0.0  93.25843  0.0  57.504689  -44.860367  -144.671403  32.693078  -51.024991  -49.748557  1.916557  16.277303  77.20382  4.272695  0.803196  -7.294125  17.525317  24.101711  -0.631653  12.444379  14.517838  24.611381  6.052611  2.917175  2.141897  -0.65509  1.648375  2.543421  -1.617261  4.568514  6.917038  -1.617261  4.568514  6.917039  -1.035062  33.959658  13.243582  -177.796876  55.1878  -143.86775  -30.125738  -11.817859  92.964012  72.675396  -31.949155  2.525773  17.752998  -4.498703  23.155986  143.35074  54.224819  74.9196  -15.816371  -26.530197  -109.4631  70.376507  1.472792  -9.573904  13.46163  19.675101  21.931112  9.276621  15.263361  15.842652  
0.0  93.25843  0.0  56.357212  -44.913153  -143.933266  33.130237  -50.185858  -50.121428  2.458447  16.690051  82.322685  3.653588  1.00011  -7.345933  17.832026  23.17594  0.03257  12.300927  14.530983  24.669115  5.830581  2.949641  2.148216  -0.709909  1.598148  2.518859  -1.773963  4.436496  6.846867  -1.773963  4.436496  6.846867  -0.984332  33.947528  12.961508  -178.115614  55.167077  -144.014606  -30.105425  -12.064339  92.661027  72.432763  -31.841651  2.582024  17.730451  -4.42225  23.188624  141.99539  54.506847  73.499091  -15.156558  -27.537163  -109.376829  70.015861  1.873583  -9.266682  13.394896  19.608542  22.089588  9.22528  15.214711  15.965299  
0.0  93.25843  0.0  54.734394  -44.919867  -142.631224  33.570852  -48.822798  -50.666111  2.750362  17.425568  87.052702  3.262131  0.987826  -7.417369  17.953052  22.110783  0.534913  12.191043  14.449019  24.781529  5.004057  2.926009  1.954429  -0.800623  1.518908  2.444042  -2.034841  4.227352  6.637695  -2.034841  4.227352  6.637695  -0.735827  34.018894  12.944569  -178.076326  55.175917  -143.913757  -30.164876  -12.129804  92.190104  71.940051  -31.934749  3.01141  17.700231  -4.379076  23.305335  140.729664  54.725664  72.076627  -14.706856  -28.375756  -109.241383  69.684968  2.207529  -8.868043  13.400402  19.554474  22.280496  9.226018  15.178859  16.109224  
